%TF.GenerationSoftware,Altium Limited,Altium Designer Develop,26.2.0 (10)*%
G04 Layer_Color=16711935*
%FSLAX45Y45*%
%MOMM*%
%TF.SameCoordinates,B23128D7-451C-415A-91E6-F0051957DF52*%
%TF.FilePolarity,Negative*%
%TF.FileFunction,Soldermask,Bot*%
%TF.Part,Single*%
G01*
G75*
%TA.AperFunction,ComponentPad*%
%ADD50C,1.57000*%
%ADD52C,1.50000*%
%ADD57C,0.90000*%
%TA.AperFunction,ConnectorPad*%
%ADD69R,3.94000X2.14000*%
%TA.AperFunction,ComponentPad*%
G04:AMPARAMS|DCode=81|XSize=1.75mm|YSize=1.75mm|CornerRadius=0.4625mm|HoleSize=0mm|Usage=FLASHONLY|Rotation=180.000|XOffset=0mm|YOffset=0mm|HoleType=Round|Shape=RoundedRectangle|*
%AMROUNDEDRECTD81*
21,1,1.75000,0.82500,0,0,180.0*
21,1,0.82500,1.75000,0,0,180.0*
1,1,0.92500,-0.41250,0.41250*
1,1,0.92500,0.41250,0.41250*
1,1,0.92500,0.41250,-0.41250*
1,1,0.92500,-0.41250,-0.41250*
%
%ADD81ROUNDEDRECTD81*%
%ADD82R,1.50000X1.50000*%
%ADD83C,1.60000*%
%ADD84C,1.75000*%
%ADD85O,1.65000X1.00000*%
%ADD86O,1.05000X1.35000*%
%ADD87R,1.60000X1.60000*%
%TA.AperFunction,WasherPad*%
%ADD88C,1.25200*%
D50*
X11124498Y8062802D02*
D03*
X10368698Y7617298D02*
D03*
X9676957Y7575675D02*
D03*
X9468897Y7794513D02*
D03*
X10292825Y7984252D02*
D03*
D52*
X12900000Y8530000D02*
D03*
X12646000D02*
D03*
X12392000D02*
D03*
D57*
X11535915Y8581384D02*
D03*
X11835915D02*
D03*
D69*
X13766800Y7724900D02*
D03*
Y7184900D02*
D03*
D81*
X11408000Y6447000D02*
D03*
D82*
X13153999Y8530000D02*
D03*
D83*
X9255000Y8400000D02*
D03*
D84*
X11154000Y6447000D02*
D03*
X10900000D02*
D03*
X10392000D02*
D03*
X11154000Y6193000D02*
D03*
X10392000D02*
D03*
X11408000D02*
D03*
X10646000D02*
D03*
Y6447000D02*
D03*
X10900000Y6193000D02*
D03*
D85*
X9158900Y7637900D02*
D03*
Y6937900D02*
D03*
D86*
X9428900Y7537900D02*
D03*
Y7037900D02*
D03*
D87*
X9255000Y8200000D02*
D03*
D88*
X9200000Y6100000D02*
D03*
X13800000Y8550000D02*
D03*
Y6100000D02*
D03*
%TF.MD5,cbbc5dc97f9f36bb82e5153410e96abe*%
M02*
