%TF.GenerationSoftware,Altium Limited,Altium Designer Develop,26.2.0 (10)*%
G04 Layer_Color=0*
%FSLAX45Y45*%
%MOMM*%
%TF.SameCoordinates,B23128D7-451C-415A-91E6-F0051957DF52*%
%TF.FilePolarity,Positive*%
%TF.FileFunction,Plated,1,4,PTH,Drill*%
%TF.Part,Single*%
G01*
G75*
%TA.AperFunction,ComponentDrill*%
%ADD94C,1.10000*%
%ADD95C,0.86000*%
%ADD96C,1.02000*%
%ADD97C,1.00000*%
%ADD98O,1.15000X0.50000*%
%ADD99O,0.55000X0.85000*%
%TA.AperFunction,ViaDrill,NotFilled*%
%ADD100C,0.30000*%
D94*
X11408000Y6447000D02*
D03*
X11154000D02*
D03*
X10900000D02*
D03*
X10392000D02*
D03*
X11154000Y6193000D02*
D03*
X10392000D02*
D03*
X11408000D02*
D03*
X10646000D02*
D03*
Y6447000D02*
D03*
X10900000Y6193000D02*
D03*
D95*
X12900000Y8530000D02*
D03*
X13153999D02*
D03*
X12646000D02*
D03*
X12392000D02*
D03*
D96*
X11124498Y8062802D02*
D03*
X10368698Y7617298D02*
D03*
X9676957Y7575675D02*
D03*
X9468897Y7794513D02*
D03*
X10292825Y7984252D02*
D03*
D97*
X9255000Y8400000D02*
D03*
Y8200000D02*
D03*
D98*
X9158900Y7637900D02*
D03*
Y6937900D02*
D03*
D99*
X9428900Y7537900D02*
D03*
Y7037900D02*
D03*
D100*
X10499997Y6299998D02*
D03*
X12824995Y6749998D02*
D03*
X9374997Y6149998D02*
D03*
X12524996Y8249997D02*
D03*
X10424997Y6749998D02*
D03*
X12599996Y6899998D02*
D03*
X13349995D02*
D03*
X13574995Y6749998D02*
D03*
X10124997Y6449998D02*
D03*
X9224997Y6749998D02*
D03*
X10049997Y6299998D02*
D03*
X9674997Y7049998D02*
D03*
X9974997Y6749998D02*
D03*
X12899995Y5999998D02*
D03*
X13724995Y6749998D02*
D03*
X13124995Y8249997D02*
D03*
X12449996Y5999998D02*
D03*
X12524996Y6149998D02*
D03*
X11999996Y6299998D02*
D03*
X12899995Y6899998D02*
D03*
X13199995Y6299998D02*
D03*
X13124995Y6149998D02*
D03*
X11774996Y6749998D02*
D03*
X12824995Y7949998D02*
D03*
X12749996Y6599998D02*
D03*
X13649995Y8099998D02*
D03*
X10349997Y6599998D02*
D03*
X13274995Y6149998D02*
D03*
X11099997Y5999998D02*
D03*
X9149997Y6599998D02*
D03*
X13799995Y8099998D02*
D03*
X11699996Y5999998D02*
D03*
X13874995Y8249997D02*
D03*
X9149997Y7799998D02*
D03*
X11999996Y6599998D02*
D03*
X9449997Y8399997D02*
D03*
X12074996Y6149998D02*
D03*
X12974995Y6449998D02*
D03*
X12674996Y6749998D02*
D03*
X9824997D02*
D03*
X13424995Y6149998D02*
D03*
X13199995Y5999998D02*
D03*
X9674997Y6149998D02*
D03*
X13499995Y6899998D02*
D03*
Y8399997D02*
D03*
X13874995Y6449998D02*
D03*
X9749997Y6599998D02*
D03*
X12974995Y6149998D02*
D03*
X9974997Y6449998D02*
D03*
X13799995Y6299998D02*
D03*
X13124995Y6749998D02*
D03*
X13049995Y5999998D02*
D03*
X13649995Y8399997D02*
D03*
X12899995Y6599998D02*
D03*
X12449996Y6899998D02*
D03*
X10874997Y6749998D02*
D03*
X12224996Y8549997D02*
D03*
X11249997Y6599998D02*
D03*
X9449997Y6899998D02*
D03*
X10949997Y5999998D02*
D03*
X13499995Y6299998D02*
D03*
X12599996Y5999998D02*
D03*
X12524996Y8549997D02*
D03*
X9149997Y6299998D02*
D03*
X9449997D02*
D03*
X10349997Y5999998D02*
D03*
X13799995Y8399997D02*
D03*
X10499997Y5999998D02*
D03*
X13199995Y6599998D02*
D03*
X12524996Y7049998D02*
D03*
X13799995Y6599998D02*
D03*
X9224997Y8549997D02*
D03*
X12149996Y5999998D02*
D03*
X13199995Y6899998D02*
D03*
X11324996Y7949998D02*
D03*
X12449996Y8099998D02*
D03*
X13124995Y6449998D02*
D03*
X10649997Y5999998D02*
D03*
X13049995Y6299998D02*
D03*
X9524997Y8549997D02*
D03*
X11999996Y6899998D02*
D03*
X12749996Y7799998D02*
D03*
X13349995Y8099998D02*
D03*
X9674997Y6749998D02*
D03*
X11249997Y5999998D02*
D03*
X13724995Y8249997D02*
D03*
X13574995Y8549997D02*
D03*
X13049995Y8399997D02*
D03*
X10499997Y7499998D02*
D03*
X12599996Y7799998D02*
D03*
X12749996Y6299998D02*
D03*
X13424995Y8549997D02*
D03*
X10799997Y5999998D02*
D03*
X13424995Y6749998D02*
D03*
X9374997Y8549997D02*
D03*
X9749997Y6299998D02*
D03*
X11099997Y6599998D02*
D03*
X11549996Y6899998D02*
D03*
X12824995Y6149998D02*
D03*
X10199997Y7499998D02*
D03*
X11849996Y6899998D02*
D03*
X12299996Y5999998D02*
D03*
X9674997Y6449998D02*
D03*
X11924996D02*
D03*
X9824997D02*
D03*
X12599996Y6299998D02*
D03*
X13799995Y6899998D02*
D03*
X9299997Y6599998D02*
D03*
X13349995Y6299998D02*
D03*
X13649995Y6899998D02*
D03*
X13424995Y8249997D02*
D03*
X9299997Y6299998D02*
D03*
X10499997Y6899998D02*
D03*
X12224996Y6149998D02*
D03*
X12074996Y8249997D02*
D03*
X13574995Y6149998D02*
D03*
X13049995Y6899998D02*
D03*
X9599997Y7199998D02*
D03*
X12149996Y6299998D02*
D03*
X11549996Y6599998D02*
D03*
X11399997D02*
D03*
X13574995Y8249997D02*
D03*
X10049997Y6599998D02*
D03*
X13724995Y6449998D02*
D03*
X12974995Y6749998D02*
D03*
X13499995Y6599998D02*
D03*
X12749996Y5999998D02*
D03*
X11849996D02*
D03*
X12974995Y8249997D02*
D03*
X10799997Y8099998D02*
D03*
X13274995Y6449998D02*
D03*
X13424995D02*
D03*
X13274995Y6749998D02*
D03*
X11099997Y7799998D02*
D03*
X13349995Y5999998D02*
D03*
X13199995Y8399997D02*
D03*
X13574995Y6449998D02*
D03*
X12824995D02*
D03*
X9524997Y8249997D02*
D03*
X10049997Y6899998D02*
D03*
X12899995Y8099998D02*
D03*
X9374997Y6449998D02*
D03*
X11099997Y6899998D02*
D03*
X9299997Y7199998D02*
D03*
X12899995Y6299998D02*
D03*
X12074996Y6449998D02*
D03*
X13349995Y8399997D02*
D03*
X9599997Y6899998D02*
D03*
X11924996Y6749998D02*
D03*
X13649995Y6599998D02*
D03*
X10949997D02*
D03*
X9299997Y7499998D02*
D03*
X12749996Y8099998D02*
D03*
X13349995Y6599998D02*
D03*
X11924996Y6149998D02*
D03*
X9599997Y6299998D02*
D03*
X9749997Y5999998D02*
D03*
X13049995Y8099998D02*
D03*
X12749996Y6899998D02*
D03*
X12524996Y7649998D02*
D03*
X13649995Y6299998D02*
D03*
X10799997Y7799998D02*
D03*
X13499995Y5999998D02*
D03*
X9224997Y6449998D02*
D03*
X9299997Y6899998D02*
D03*
X10124997Y6149998D02*
D03*
X10499997Y6599998D02*
D03*
X10649997Y7799998D02*
D03*
X13649995Y5999998D02*
D03*
X12674996Y6149998D02*
D03*
X9299997Y5999998D02*
D03*
X13274995Y8249997D02*
D03*
X9374997Y7649998D02*
D03*
X9524997Y6449998D02*
D03*
X10574997Y6749998D02*
D03*
X12674996Y7949998D02*
D03*
X11324996Y8249997D02*
D03*
X9899997Y6899998D02*
D03*
X13499995Y8099998D02*
D03*
X13049995Y6599998D02*
D03*
X9899997Y6299998D02*
D03*
X13199995Y8099998D02*
D03*
X13874995Y6749998D02*
D03*
X12374996Y6149998D02*
D03*
X11999996Y5999998D02*
D03*
X9149997D02*
D03*
X9374997Y6749998D02*
D03*
X11790171Y8059473D02*
D03*
X11743417Y8257918D02*
D03*
X10230000Y6990000D02*
D03*
X11220000Y7700000D02*
D03*
X11613392Y7919564D02*
D03*
X11960000Y8060000D02*
D03*
X12141760Y7699073D02*
D03*
X12190000Y8310000D02*
D03*
X12850000D02*
D03*
X12100000Y7030000D02*
D03*
X12370000Y7580000D02*
D03*
X11182022Y6932953D02*
D03*
X11613497Y8296605D02*
D03*
X13322301Y7652300D02*
D03*
X12454825Y7463250D02*
D03*
X12279966Y8111075D02*
D03*
X12107012Y7824921D02*
D03*
X12260500Y7644280D02*
D03*
X12048525Y8580041D02*
D03*
X11809872Y7855023D02*
D03*
X12255500Y7450600D02*
D03*
Y7340600D02*
D03*
X12434303Y7140954D02*
D03*
X12145500Y7450600D02*
D03*
X11911066Y7578223D02*
D03*
X11805254Y7397026D02*
D03*
X12145500Y7340600D02*
D03*
X11888141Y7239463D02*
D03*
X11838661Y7125298D02*
D03*
X12532554Y6529519D02*
D03*
X12192956Y7027723D02*
D03*
X12209372Y6756952D02*
D03*
X11900371Y7015568D02*
D03*
X11685882Y8647914D02*
D03*
X11314900Y8582143D02*
D03*
X11461745Y8296476D02*
D03*
X11497500Y7797500D02*
D03*
X11490000Y7490000D02*
D03*
X11320000D02*
D03*
X11410000Y7410000D02*
D03*
X10879788Y8672565D02*
D03*
X10375408Y8673191D02*
D03*
X10591572Y8670685D02*
D03*
X10181208Y8672240D02*
D03*
X9975379Y8672993D02*
D03*
X10055000Y8280000D02*
D03*
X9945000D02*
D03*
X9770496Y8672634D02*
D03*
X10514493Y8202499D02*
D03*
X11240000Y7410000D02*
D03*
X10593981Y7375873D02*
D03*
X10055000Y8170000D02*
D03*
X10183559Y7763491D02*
D03*
X9945000Y8170000D02*
D03*
X9925011Y7478511D02*
D03*
X11493859Y7320824D02*
D03*
X11693576Y7113382D02*
D03*
X11410000Y7240000D02*
D03*
X11320000Y7320000D02*
D03*
X11240000Y7240000D02*
D03*
X11322996Y6919124D02*
D03*
X10401356Y7316957D02*
D03*
X10989820Y7082116D02*
D03*
X10151506Y7135280D02*
D03*
X9942783Y7131650D02*
D03*
X9715693Y7319440D02*
D03*
X9473094Y6613885D02*
D03*
X9484748Y6044753D02*
D03*
X11292983Y7015732D02*
D03*
X11066433Y7348193D02*
D03*
X11067128Y7284409D02*
D03*
X11801613Y7768993D02*
D03*
X10165229Y7318476D02*
D03*
X10000000Y7570000D02*
D03*
X11150000Y8570000D02*
D03*
X11150000Y8410000D02*
D03*
Y8250000D02*
D03*
X10277405Y8284297D02*
D03*
X10275861Y8167208D02*
D03*
X10022869Y7957106D02*
D03*
X9926763Y7850166D02*
D03*
X11907126Y8294498D02*
D03*
X9974400Y6613885D02*
D03*
X11236773Y7049543D02*
D03*
X11402500Y7797500D02*
D03*
X11959300Y7930700D02*
D03*
X11341500Y7051500D02*
D03*
X11960242Y7997082D02*
D03*
X11061000Y7491000D02*
D03*
X11876559Y7395600D02*
D03*
X11810000Y7240000D02*
D03*
%TF.MD5,b1763407be6124eeb46d923b76e39a14*%
M02*
