%TF.GenerationSoftware,Altium Limited,Altium Designer Develop,26.2.0 (10)*%
G04 Layer_Color=65535*
%FSLAX45Y45*%
%MOMM*%
%TF.SameCoordinates,B23128D7-451C-415A-91E6-F0051957DF52*%
%TF.FilePolarity,Positive*%
%TF.FileFunction,Legend,Top*%
%TF.Part,Single*%
G01*
G75*
%TA.AperFunction,NonConductor*%
%ADD60C,0.25400*%
%ADD61C,0.25000*%
%ADD62C,0.10000*%
%ADD63C,0.20000*%
%ADD64C,0.17500*%
G36*
X13342583Y6900395D02*
X13377756D01*
Y6895371D01*
X13397855D01*
Y6890346D01*
X13412927D01*
Y6885322D01*
X13433028D01*
Y6880297D01*
X13443076D01*
Y6875272D01*
X13458150D01*
Y6870247D01*
X13468199D01*
Y6865223D01*
X13478249D01*
Y6860198D01*
X13488298D01*
Y6850149D01*
X13483273D01*
Y6845124D01*
X13478249D01*
Y6840100D01*
X13473224D01*
Y6835075D01*
X13468199D01*
Y6830050D01*
X13463174D01*
Y6820001D01*
X13458150D01*
Y6814976D01*
X13453125D01*
Y6809952D01*
X13448100D01*
Y6804927D01*
X13443076D01*
Y6794878D01*
X13438051D01*
Y6789853D01*
X13433028D01*
Y6784829D01*
X13428001D01*
Y6774779D01*
X13422977D01*
Y6769755D01*
X13417953D01*
Y6759706D01*
X13412927D01*
Y6754681D01*
X13407904D01*
Y6744632D01*
X13402879D01*
Y6739607D01*
X13397855D01*
Y6729558D01*
X13392830D01*
Y6724533D01*
X13387805D01*
Y6714484D01*
X13382780D01*
Y6704434D01*
X13372731D01*
Y6714484D01*
X13367706D01*
Y6719509D01*
X13362682D01*
Y6724533D01*
X13357657D01*
Y6729558D01*
X13342583D01*
Y6724533D01*
X13337560D01*
Y6694385D01*
X13327509D01*
Y6699410D01*
X13322485D01*
Y6704434D01*
X13317461D01*
Y6709459D01*
X13307411D01*
Y6714484D01*
X13297362D01*
Y6719509D01*
X13287312D01*
Y6724533D01*
X13277263D01*
Y6729558D01*
X13267213D01*
Y6734582D01*
X13252139D01*
Y6739607D01*
X13242091D01*
Y6744632D01*
X13227017D01*
Y6749656D01*
X13211943D01*
Y6754681D01*
X13191844D01*
Y6759706D01*
X13171745D01*
Y6764730D01*
X13101401D01*
Y6759706D01*
X13086327D01*
Y6754681D01*
X13081302D01*
Y6749656D01*
X13076279D01*
Y6744632D01*
X13071252D01*
Y6714484D01*
X13076279D01*
Y6699410D01*
X13081302D01*
Y6684336D01*
X13086327D01*
Y6674287D01*
X13091351D01*
Y6659213D01*
X13096376D01*
Y6654188D01*
X13101401D01*
Y6644139D01*
X13106425D01*
Y6634090D01*
X13111450D01*
Y6629065D01*
X13116475D01*
Y6624040D01*
X13121500D01*
Y6613991D01*
X13126524D01*
Y6608966D01*
X13131549D01*
Y6603942D01*
X13136572D01*
Y6598917D01*
X13141599D01*
Y6593893D01*
X13146622D01*
Y6588868D01*
X13151646D01*
Y6583843D01*
X13161696D01*
Y6578819D01*
X13171745D01*
Y6573794D01*
X13181795D01*
Y6568769D01*
X13201894D01*
Y6558720D01*
X13196869D01*
Y6548671D01*
X13191844D01*
Y6538621D01*
X13186819D01*
Y6528572D01*
X13181795D01*
Y6513498D01*
X13176770D01*
Y6488375D01*
X13171745D01*
Y6463252D01*
X13176770D01*
Y6443153D01*
X13181795D01*
Y6428080D01*
X13186819D01*
Y6423055D01*
X13191844D01*
Y6418030D01*
X13196869D01*
Y6413006D01*
X13201894D01*
Y6407981D01*
X13206918D01*
Y6402956D01*
X13216966D01*
Y6397932D01*
X13232040D01*
Y6392907D01*
X13252139D01*
Y6387882D01*
X13292337D01*
Y6392907D01*
X13312434D01*
Y6397932D01*
X13322485D01*
Y6402956D01*
X13332533D01*
Y6407981D01*
X13337560D01*
Y6413006D01*
X13342583D01*
Y6418030D01*
X13347607D01*
Y6423055D01*
X13352632D01*
Y6428080D01*
X13357657D01*
Y6438129D01*
X13362682D01*
Y6448178D01*
X13367706D01*
Y6458227D01*
X13372731D01*
Y6473301D01*
X13377756D01*
Y6493400D01*
X13382780D01*
Y6513498D01*
X13387805D01*
Y6528572D01*
X13392830D01*
Y6508474D01*
X13397855D01*
Y6493400D01*
X13402879D01*
Y6478326D01*
X13407904D01*
Y6463252D01*
X13412927D01*
Y6453203D01*
X13417953D01*
Y6448178D01*
X13422977D01*
Y6443153D01*
X13428001D01*
Y6483351D01*
X13422977D01*
Y6508474D01*
X13417953D01*
Y6528572D01*
X13422977D01*
Y6523548D01*
X13428001D01*
Y6513498D01*
X13433028D01*
Y6508474D01*
X13438051D01*
Y6503449D01*
X13448100D01*
Y6498424D01*
X13453125D01*
Y6493400D01*
X13458150D01*
Y6488375D01*
X13463174D01*
Y6483351D01*
X13468199D01*
Y6478326D01*
X13473224D01*
Y6473301D01*
X13483273D01*
Y6468277D01*
X13493323D01*
Y6463252D01*
X13503372D01*
Y6458227D01*
X13513422D01*
Y6453203D01*
X13558643D01*
Y6458227D01*
X13573717D01*
Y6463252D01*
X13583766D01*
Y6468277D01*
X13588789D01*
Y6473301D01*
X13593816D01*
Y6478326D01*
X13598840D01*
Y6483351D01*
X13603864D01*
Y6488375D01*
X13608888D01*
Y6493400D01*
X13613914D01*
Y6503449D01*
X13618938D01*
Y6508474D01*
X13623962D01*
Y6518523D01*
X13628987D01*
Y6528572D01*
X13634012D01*
Y6548671D01*
X13639037D01*
Y6563745D01*
X13634012D01*
Y6583843D01*
X13628987D01*
Y6593893D01*
X13623962D01*
Y6603942D01*
X13618938D01*
Y6608966D01*
X13613914D01*
Y6613991D01*
X13608888D01*
Y6619016D01*
X13603864D01*
Y6624040D01*
X13598840D01*
Y6629065D01*
X13593816D01*
Y6634090D01*
X13583766D01*
Y6639114D01*
X13578741D01*
Y6644139D01*
X13568692D01*
Y6649163D01*
X13558643D01*
Y6654188D01*
X13553618D01*
Y6664237D01*
X13558643D01*
Y6669262D01*
X13563667D01*
Y6674287D01*
X13568692D01*
Y6684336D01*
X13573717D01*
Y6689361D01*
X13578741D01*
Y6699410D01*
X13583766D01*
Y6709459D01*
X13588789D01*
Y6724533D01*
X13593816D01*
Y6739607D01*
X13598840D01*
Y6754681D01*
X13603864D01*
Y6764730D01*
X13608888D01*
Y6759706D01*
X13613914D01*
Y6754681D01*
X13618938D01*
Y6749656D01*
X13623962D01*
Y6744632D01*
X13628987D01*
Y6734582D01*
X13634012D01*
Y6729558D01*
X13639037D01*
Y6719509D01*
X13644061D01*
Y6714484D01*
X13649086D01*
Y6709459D01*
X13654111D01*
Y6699410D01*
X13659135D01*
Y6689361D01*
X13664160D01*
Y6679311D01*
X13669183D01*
Y6674287D01*
X13674210D01*
Y6659213D01*
X13679234D01*
Y6649163D01*
X13684258D01*
Y6639114D01*
X13689284D01*
Y6629065D01*
X13694308D01*
Y6613991D01*
X13699333D01*
Y6593893D01*
X13704356D01*
Y6573794D01*
X13709383D01*
Y6553696D01*
X13714406D01*
Y6513498D01*
X13719431D01*
Y6433104D01*
X13714406D01*
Y6402956D01*
X13709383D01*
Y6377833D01*
X13704356D01*
Y6357735D01*
X13699333D01*
Y6337636D01*
X13694308D01*
Y6327587D01*
X13689284D01*
Y6312513D01*
X13684258D01*
Y6302464D01*
X13679234D01*
Y6292414D01*
X13674210D01*
Y6282365D01*
X13669183D01*
Y6272316D01*
X13664160D01*
Y6262267D01*
X13659135D01*
Y6252217D01*
X13654111D01*
Y6247193D01*
X13649086D01*
Y6237143D01*
X13644061D01*
Y6232119D01*
X13639037D01*
Y6222069D01*
X13634012D01*
Y6217045D01*
X13628987D01*
Y6212020D01*
X13623962D01*
Y6206995D01*
X13618938D01*
Y6196946D01*
X13613914D01*
Y6191922D01*
X13608888D01*
Y6186897D01*
X13603864D01*
Y6181872D01*
X13598840D01*
Y6176848D01*
X13593816D01*
Y6171823D01*
X13588789D01*
Y6166798D01*
X13583766D01*
Y6161774D01*
X13578741D01*
Y6156749D01*
X13573717D01*
Y6151725D01*
X13568692D01*
Y6146700D01*
X13563667D01*
Y6141675D01*
X13558643D01*
Y6136651D01*
X13548593D01*
Y6131626D01*
X13543568D01*
Y6126601D01*
X13533521D01*
Y6121577D01*
X13528494D01*
Y6116552D01*
X13518445D01*
Y6111528D01*
X13513422D01*
Y6106503D01*
X13503372D01*
Y6101478D01*
X13493323D01*
Y6096454D01*
X13488298D01*
Y6091429D01*
X13478249D01*
Y6086404D01*
X13463174D01*
Y6081380D01*
X13453125D01*
Y6076355D01*
X13438051D01*
Y6071331D01*
X13422977D01*
Y6066306D01*
X13412927D01*
Y6061281D01*
X13392830D01*
Y6056256D01*
X13367706D01*
Y6051232D01*
X13342583D01*
Y6046207D01*
X13232040D01*
Y6051232D01*
X13206918D01*
Y6056256D01*
X13176770D01*
Y6061281D01*
X13161696D01*
Y6066306D01*
X13146622D01*
Y6071331D01*
X13136572D01*
Y6076355D01*
X13121500D01*
Y6081380D01*
X13111450D01*
Y6086404D01*
X13096376D01*
Y6091429D01*
X13086327D01*
Y6096454D01*
X13076279D01*
Y6101478D01*
X13071252D01*
Y6106503D01*
X13061205D01*
Y6111528D01*
X13051154D01*
Y6116552D01*
X13046130D01*
Y6121577D01*
X13041106D01*
Y6126601D01*
X13031056D01*
Y6131626D01*
X13026031D01*
Y6136651D01*
X13015982D01*
Y6141675D01*
X13010957D01*
Y6146700D01*
X13005933D01*
Y6151725D01*
X13000908D01*
Y6156749D01*
X12995883D01*
Y6161774D01*
X12990858D01*
Y6166798D01*
X12985834D01*
Y6171823D01*
X12980809D01*
Y6176848D01*
X12975784D01*
Y6181872D01*
X12970760D01*
Y6186897D01*
X12965736D01*
Y6191922D01*
X12960712D01*
Y6196946D01*
X12955685D01*
Y6201971D01*
X12950662D01*
Y6212020D01*
X12945638D01*
Y6217045D01*
X12940611D01*
Y6222069D01*
X12935588D01*
Y6227094D01*
X12930563D01*
Y6237143D01*
X12925539D01*
Y6247193D01*
X12920514D01*
Y6252217D01*
X12915489D01*
Y6262267D01*
X12910464D01*
Y6267291D01*
X12905440D01*
Y6277341D01*
X12900415D01*
Y6287390D01*
X12895390D01*
Y6297439D01*
X12890366D01*
Y6312513D01*
X12885342D01*
Y6327587D01*
X12880318D01*
Y6337636D01*
X12875291D01*
Y6352710D01*
X12870267D01*
Y6372808D01*
X12865244D01*
Y6397932D01*
X12860217D01*
Y6428080D01*
X12855193D01*
Y6523548D01*
X12860217D01*
Y6558720D01*
X12865244D01*
Y6578819D01*
X12870267D01*
Y6598917D01*
X12875291D01*
Y6613991D01*
X12880318D01*
Y6629065D01*
X12885342D01*
Y6644139D01*
X12890366D01*
Y6654188D01*
X12895390D01*
Y6664237D01*
X12900415D01*
Y6674287D01*
X12905440D01*
Y6679311D01*
X12910464D01*
Y6689361D01*
X12915489D01*
Y6699410D01*
X12920514D01*
Y6709459D01*
X12925539D01*
Y6714484D01*
X12930563D01*
Y6719509D01*
X12935588D01*
Y6729558D01*
X12940611D01*
Y6734582D01*
X12945638D01*
Y6744632D01*
X12950662D01*
Y6749656D01*
X12955685D01*
Y6754681D01*
X12960712D01*
Y6759706D01*
X12965736D01*
Y6764730D01*
X12970760D01*
Y6769755D01*
X12975784D01*
Y6774779D01*
X12980809D01*
Y6779804D01*
X12985834D01*
Y6784829D01*
X12990858D01*
Y6789853D01*
X12995883D01*
Y6799903D01*
X13005933D01*
Y6804927D01*
X13010957D01*
Y6809952D01*
X13015982D01*
Y6814976D01*
X13021005D01*
Y6820001D01*
X13031056D01*
Y6825026D01*
X13036079D01*
Y6830050D01*
X13046130D01*
Y6835075D01*
X13051154D01*
Y6840100D01*
X13061205D01*
Y6845124D01*
X13066228D01*
Y6850149D01*
X13076279D01*
Y6855173D01*
X13086327D01*
Y6860198D01*
X13096376D01*
Y6865223D01*
X13106425D01*
Y6870247D01*
X13116475D01*
Y6875272D01*
X13131549D01*
Y6880297D01*
X13141599D01*
Y6885322D01*
X13161696D01*
Y6890346D01*
X13176770D01*
Y6895371D01*
X13196869D01*
Y6900395D01*
X13232040D01*
Y6905420D01*
X13342583D01*
Y6900395D01*
D02*
G37*
%LPC*%
G36*
X13297362Y6327587D02*
X13257164D01*
Y6322562D01*
X13252139D01*
Y6297439D01*
X13247115D01*
Y6272316D01*
X13242091D01*
Y6247193D01*
X13237067D01*
Y6257242D01*
X13232040D01*
Y6282365D01*
X13227017D01*
Y6307488D01*
X13221992D01*
Y6327587D01*
X13176770D01*
Y6201971D01*
X13181795D01*
Y6196946D01*
X13201894D01*
Y6277341D01*
X13206918D01*
Y6272316D01*
X13211943D01*
Y6252217D01*
X13216966D01*
Y6227094D01*
X13221992D01*
Y6206995D01*
X13227017D01*
Y6196946D01*
X13247115D01*
Y6201971D01*
X13252139D01*
Y6222069D01*
X13257164D01*
Y6242168D01*
X13262189D01*
Y6267291D01*
X13267213D01*
Y6282365D01*
X13272238D01*
Y6237143D01*
Y6232119D01*
Y6196946D01*
X13297362D01*
Y6327587D01*
D02*
G37*
G36*
X13367706D02*
X13332533D01*
Y6322562D01*
X13322485D01*
Y6312513D01*
X13317461D01*
Y6302464D01*
X13312434D01*
Y6292414D01*
X13317461D01*
Y6287390D01*
X13327509D01*
Y6292414D01*
X13332533D01*
Y6307488D01*
X13337560D01*
Y6312513D01*
X13362682D01*
Y6302464D01*
X13367706D01*
Y6287390D01*
X13362682D01*
Y6277341D01*
X13357657D01*
Y6272316D01*
X13337560D01*
Y6257242D01*
X13357657D01*
Y6252217D01*
X13367706D01*
Y6237143D01*
X13372731D01*
Y6232119D01*
X13367706D01*
Y6217045D01*
X13362682D01*
Y6212020D01*
X13357657D01*
Y6206995D01*
X13342583D01*
Y6212020D01*
X13337560D01*
Y6217045D01*
X13332533D01*
Y6227094D01*
X13327509D01*
Y6232119D01*
X13312434D01*
Y6217045D01*
X13317461D01*
Y6206995D01*
X13322485D01*
Y6201971D01*
X13327509D01*
Y6196946D01*
X13337560D01*
Y6191922D01*
X13357657D01*
Y6196946D01*
X13372731D01*
Y6201971D01*
X13377756D01*
Y6206995D01*
X13382780D01*
Y6217045D01*
X13387805D01*
Y6252217D01*
X13382780D01*
Y6257242D01*
X13377756D01*
Y6262267D01*
X13372731D01*
Y6272316D01*
X13377756D01*
Y6277341D01*
X13382780D01*
Y6312513D01*
X13377756D01*
Y6317538D01*
X13372731D01*
Y6322562D01*
X13367706D01*
Y6327587D01*
D02*
G37*
G36*
X13458150D02*
X13422977D01*
Y6322562D01*
X13412927D01*
Y6317538D01*
X13407904D01*
Y6307488D01*
X13402879D01*
Y6287390D01*
X13407904D01*
Y6282365D01*
X13412927D01*
Y6287390D01*
X13417953D01*
Y6292414D01*
X13422977D01*
Y6307488D01*
X13428001D01*
Y6312513D01*
X13448100D01*
Y6307488D01*
X13453125D01*
Y6302464D01*
X13458150D01*
Y6282365D01*
X13453125D01*
Y6272316D01*
X13448100D01*
Y6267291D01*
X13443076D01*
Y6262267D01*
X13438051D01*
Y6257242D01*
X13433028D01*
Y6252217D01*
X13428001D01*
Y6247193D01*
X13422977D01*
Y6242168D01*
X13417953D01*
Y6237143D01*
X13412927D01*
Y6227094D01*
X13407904D01*
Y6217045D01*
X13402879D01*
Y6196946D01*
X13473224D01*
Y6201971D01*
X13478249D01*
Y6206995D01*
X13473224D01*
Y6212020D01*
X13422977D01*
Y6222069D01*
X13428001D01*
Y6232119D01*
X13433028D01*
Y6237143D01*
X13443076D01*
Y6242168D01*
X13448100D01*
Y6247193D01*
X13453125D01*
Y6252217D01*
X13458150D01*
Y6257242D01*
X13463174D01*
Y6262267D01*
X13468199D01*
Y6272316D01*
X13473224D01*
Y6312513D01*
X13468199D01*
Y6317538D01*
X13463174D01*
Y6322562D01*
X13458150D01*
Y6327587D01*
D02*
G37*
G36*
X13166721D02*
X13081302D01*
Y6307488D01*
X13106425D01*
Y6302464D01*
X13111450D01*
Y6196946D01*
X13136572D01*
Y6201971D01*
X13141599D01*
Y6242168D01*
Y6247193D01*
Y6307488D01*
X13166721D01*
Y6327587D01*
D02*
G37*
G36*
X13051154Y6332611D02*
X13015982D01*
Y6327587D01*
X13005933D01*
Y6322562D01*
X13000908D01*
Y6317538D01*
X12995883D01*
Y6312513D01*
X12990858D01*
Y6277341D01*
X12995883D01*
Y6267291D01*
X13000908D01*
Y6262267D01*
X13005933D01*
Y6257242D01*
X13021005D01*
Y6252217D01*
X13031056D01*
Y6247193D01*
X13041106D01*
Y6242168D01*
X13046130D01*
Y6222069D01*
X13041106D01*
Y6217045D01*
X13021005D01*
Y6222069D01*
X13015982D01*
Y6242168D01*
X12990858D01*
Y6212020D01*
X12995883D01*
Y6201971D01*
X13005933D01*
Y6196946D01*
X13021005D01*
Y6191922D01*
X13041106D01*
Y6196946D01*
X13061205D01*
Y6201971D01*
X13066228D01*
Y6206995D01*
X13071252D01*
Y6212020D01*
X13076279D01*
Y6252217D01*
X13071252D01*
Y6262267D01*
X13061205D01*
Y6267291D01*
X13056178D01*
Y6272316D01*
X13041106D01*
Y6277341D01*
X13031056D01*
Y6282365D01*
X13021005D01*
Y6292414D01*
X13015982D01*
Y6297439D01*
X13021005D01*
Y6307488D01*
X13026031D01*
Y6312513D01*
X13036079D01*
Y6307488D01*
X13041106D01*
Y6302464D01*
X13046130D01*
Y6292414D01*
X13071252D01*
Y6297439D01*
X13076279D01*
Y6302464D01*
X13071252D01*
Y6317538D01*
X13066228D01*
Y6322562D01*
X13061205D01*
Y6327587D01*
X13051154D01*
Y6332611D01*
D02*
G37*
%LPD*%
D60*
X9850952Y7529933D02*
G03*
X9850952Y7529933I-10000J0D01*
G01*
X9042606Y7910702D02*
X9152395D01*
X9097898Y7863259D02*
Y7958574D01*
X13053915Y8302974D02*
X13104700D01*
X13079308D01*
Y8150623D01*
X13053915D01*
X13104700D01*
X13282442D02*
X13180875D01*
X13282442Y8252191D01*
Y8277582D01*
X13257050Y8302974D01*
X13206265D01*
X13180875Y8277582D01*
X13434792D02*
X13409399Y8302974D01*
X13358617D01*
X13333224Y8277582D01*
Y8176015D01*
X13358617Y8150623D01*
X13409399D01*
X13434792Y8176015D01*
X10418300Y6775524D02*
X10392909Y6800916D01*
X10342125D01*
X10316733Y6775524D01*
Y6750133D01*
X10342125Y6724741D01*
X10392909D01*
X10418300Y6699349D01*
Y6673957D01*
X10392909Y6648565D01*
X10342125D01*
X10316733Y6673957D01*
X10469084Y6800916D02*
Y6648565D01*
X10519867Y6699349D01*
X10570651Y6648565D01*
Y6800916D01*
X10621435D02*
Y6648565D01*
X10697610D01*
X10723002Y6673957D01*
Y6775524D01*
X10697610Y6800916D01*
X10621435D01*
D61*
X9563900Y7417900D02*
G03*
X9563900Y7417900I-12500J0D01*
G01*
X11633776Y7653205D02*
G03*
X11633776Y7653205I-7500J0D01*
G01*
X11953073Y7630814D02*
G03*
X11953073Y7630814I-12500J0D01*
G01*
X11977800Y8287108D02*
G03*
X11977800Y8287108I-12500J0D01*
G01*
X12075575Y6509188D02*
G03*
X12075575Y6509188I-12500J0D01*
G01*
X10312795Y8106234D02*
G03*
X10312795Y8106234I-12500J0D01*
G01*
X11608500Y6445000D02*
G03*
X11608500Y6445000I-12500J0D01*
G01*
X11988700Y8125700D02*
G03*
X11988700Y8125700I-12500J0D01*
G01*
D62*
X9493756Y6045699D02*
G03*
X9493756Y6045699I-5000J0D01*
G01*
D63*
X9281400Y6937901D02*
X9406900D01*
X8943900D02*
X9036400D01*
X8943900D02*
Y7637901D01*
X9036400D01*
X11621500Y7593500D02*
Y7621000D01*
Y7111000D02*
Y7138500D01*
X11111500Y7111000D02*
X11139000D01*
X11594000D02*
X11621500D01*
X11111500Y7593500D02*
Y7621000D01*
Y7111000D02*
Y7138500D01*
Y7621000D02*
X11139000D01*
X11594000D02*
X11621500D01*
X12353000Y7180600D02*
X12415500D01*
X11985500D02*
X12048000D01*
X11985500D02*
Y7243100D01*
X12415500Y7180600D02*
Y7243100D01*
Y7548100D02*
Y7610600D01*
X11985500D02*
X12048000D01*
X11985500Y7548100D02*
Y7610600D01*
X9085000Y8005000D02*
Y8595000D01*
Y8005000D02*
X9535000D01*
X9085000Y8595000D02*
X9535000D01*
X9888338Y6478885D02*
Y6491385D01*
Y6736385D02*
Y6748885D01*
X9568338Y6478885D02*
X9888338D01*
X9568338D02*
Y6491385D01*
Y6736385D02*
Y6748885D01*
X9755000Y7480000D02*
X9875000D01*
X9787500Y7735000D02*
Y7760000D01*
X9892500Y7735000D02*
Y7760000D01*
X9538756Y6170699D02*
X9938756D01*
Y5850699D02*
Y5920699D01*
X9538756Y5850699D02*
X9938756D01*
X9538756D02*
Y5920699D01*
X12020915Y8562384D02*
Y8600384D01*
Y8755384D02*
Y8861384D01*
X11350915D02*
X12020915D01*
X11350915Y8562384D02*
Y8600384D01*
Y8755384D02*
Y8861384D01*
X11533415Y8451384D02*
X11538415D01*
X11683415D02*
X11838415D01*
X10620000Y7780000D02*
Y7880000D01*
X10480000Y7780000D02*
Y7880000D01*
X10780000Y7830001D02*
X10900000D01*
X10780000D02*
Y8120001D01*
X10900000D01*
Y7830001D02*
Y8120001D01*
X12252500Y8403000D02*
Y8657000D01*
X13293500D01*
Y8403000D02*
Y8657000D01*
X9330000Y7840000D02*
Y7940000D01*
X9190000Y7840000D02*
Y7940000D01*
X12460000Y7690000D02*
Y7790000D01*
X12320000Y7690000D02*
Y7790000D01*
X12262000Y7697000D02*
Y7797000D01*
X12122000Y7697000D02*
Y7797000D01*
X11301320Y7875350D02*
Y7975350D01*
X10430000Y7780000D02*
Y7880000D01*
X11078500Y7067700D02*
X11178500D01*
X11580000Y7790000D02*
X11680000D01*
X10222500Y8377500D02*
Y8447500D01*
X10152500D02*
X10222500D01*
X9777500Y8377500D02*
Y8447500D01*
X9847500D01*
X9777500Y8002500D02*
Y8072500D01*
Y8002500D02*
X9847500D01*
X10250000Y6058500D02*
Y6581500D01*
Y6058500D02*
X11550000D01*
X10250000Y6581500D02*
X11550000D01*
Y6058500D02*
Y6581500D01*
X11661200Y7873200D02*
X11921200D01*
X11661200Y8183200D02*
X11921200D01*
D64*
X10800000Y7704715D02*
X10925285D01*
X10800000Y7575285D02*
Y7704715D01*
Y7575285D02*
X10925285D01*
X10890000Y8505285D02*
X11015285D01*
X10890000D02*
Y8634715D01*
X11015285D01*
X9970000Y7054715D02*
X10095285D01*
X9970000Y6925285D02*
Y7054715D01*
Y6925285D02*
X10095285D01*
X10890000Y8345285D02*
X11015285D01*
X10890000D02*
Y8474715D01*
X11015285D01*
X10890000Y8314715D02*
X11015285D01*
X10890000Y8185285D02*
Y8314715D01*
Y8185285D02*
X11015285D01*
X10800000Y7405285D02*
X10925285D01*
X10800000D02*
Y7534715D01*
X10925285D01*
X9566989Y6234005D02*
X9567043Y6308981D01*
X9604531Y6308954D01*
X9617018Y6296449D01*
X9617000Y6271457D01*
X9604495Y6258970D01*
X9567007Y6258997D01*
X9591999Y6258979D02*
X9616973Y6233969D01*
X9692003Y6308890D02*
X9642019Y6308926D01*
X9641965Y6233950D01*
X9691949Y6233914D01*
X9641992Y6271438D02*
X9666984Y6271420D01*
X9766970Y6296340D02*
X9754483Y6308845D01*
X9729491Y6308863D01*
X9716986Y6296376D01*
X9716977Y6283880D01*
X9729464Y6271375D01*
X9754456Y6271357D01*
X9766943Y6258852D01*
X9766934Y6246356D01*
X9754429Y6233869D01*
X9729437Y6233887D01*
X9716950Y6246392D01*
X9841955Y6308782D02*
X9791971Y6308818D01*
X9791917Y6233842D01*
X9841901Y6233806D01*
X9791944Y6271330D02*
X9816936Y6271312D01*
X9866947Y6308764D02*
X9916931Y6308728D01*
X9891939Y6308746D01*
X9891885Y6233770D01*
X12132037Y8423456D02*
X12207013Y8423564D01*
X12206959Y8461052D01*
X12194445Y8473530D01*
X12181949Y8473512D01*
X12169471Y8460998D01*
X12169525Y8423510D01*
X12169471Y8460998D01*
X12156957Y8473476D01*
X12144461Y8473458D01*
X12131983Y8460944D01*
X12132037Y8423456D01*
X12131876Y8535920D02*
X12131911Y8510928D01*
X12144426Y8498450D01*
X12194409Y8498522D01*
X12206887Y8511036D01*
X12206851Y8536028D01*
X12194338Y8548506D01*
X12144354Y8548434D01*
X12131876Y8535920D01*
X12131768Y8610896D02*
X12131804Y8585904D01*
X12144318Y8573426D01*
X12194302Y8573498D01*
X12206780Y8586012D01*
X12206744Y8611004D01*
X12194230Y8623482D01*
X12144246Y8623410D01*
X12131768Y8610896D01*
X12131714Y8648384D02*
X12131642Y8698368D01*
X12131678Y8673376D01*
X12206654Y8673484D01*
%TF.MD5,4e1298c146515de1c07a9ea866b3c6df*%
M02*
