%TF.GenerationSoftware,Altium Limited,Altium Designer Develop,26.2.0 (10)*%
G04 Layer_Color=255*
%FSLAX45Y45*%
%MOMM*%
%TF.SameCoordinates,B23128D7-451C-415A-91E6-F0051957DF52*%
%TF.FilePolarity,Positive*%
%TF.FileFunction,Pads,Bot*%
%TF.Part,Single*%
G01*
G75*
%TA.AperFunction,ConnectorPad*%
%ADD19R,3.80000X2.00000*%
%TA.AperFunction,ComponentPad*%
G04:AMPARAMS|DCode=48|XSize=1.65mm|YSize=1.65mm|CornerRadius=0.4125mm|HoleSize=0mm|Usage=FLASHONLY|Rotation=180.000|XOffset=0mm|YOffset=0mm|HoleType=Round|Shape=RoundedRectangle|*
%AMROUNDEDRECTD48*
21,1,1.65000,0.82500,0,0,180.0*
21,1,0.82500,1.65000,0,0,180.0*
1,1,0.82500,-0.41250,0.41250*
1,1,0.82500,0.41250,0.41250*
1,1,0.82500,0.41250,-0.41250*
1,1,0.82500,-0.41250,-0.41250*
%
%ADD48ROUNDEDRECTD48*%
%ADD49C,1.40000*%
%ADD50C,1.57000*%
%ADD51R,1.40000X1.40000*%
%ADD52C,1.50000*%
%ADD53C,1.65000*%
%ADD54O,1.55000X0.90000*%
%ADD55O,0.95000X1.25000*%
%ADD56R,1.50000X1.50000*%
%ADD57C,0.90000*%
%TA.AperFunction,WasherPad*%
%ADD58C,1.15200*%
D19*
X13766800Y7724900D02*
D03*
Y7184900D02*
D03*
D48*
X11408000Y6447000D02*
D03*
D49*
X12900000Y8530000D02*
D03*
X12646000D02*
D03*
X12392000D02*
D03*
D50*
X11124498Y8062802D02*
D03*
X10368698Y7617298D02*
D03*
X9676957Y7575675D02*
D03*
X9468897Y7794513D02*
D03*
X10292825Y7984252D02*
D03*
D51*
X13153999Y8530000D02*
D03*
D52*
X9255000Y8400000D02*
D03*
D53*
X11154000Y6447000D02*
D03*
X10900000D02*
D03*
X10392000D02*
D03*
X11154000Y6193000D02*
D03*
X10392000D02*
D03*
X11408000D02*
D03*
X10646000D02*
D03*
Y6447000D02*
D03*
X10900000Y6193000D02*
D03*
D54*
X9158900Y7637900D02*
D03*
Y6937900D02*
D03*
D55*
X9428900Y7537900D02*
D03*
Y7037900D02*
D03*
D56*
X9255000Y8200000D02*
D03*
D57*
X11535915Y8581384D02*
D03*
X11835915D02*
D03*
D58*
X9200000Y6100000D02*
D03*
X13800000Y8550000D02*
D03*
Y6100000D02*
D03*
%TF.MD5,230aadb8ed65ed9cddeaa1ebc0545a62*%
M02*
