%TF.GenerationSoftware,Altium Limited,Altium Designer Develop,26.2.0 (10)*%
G04 Layer_Color=32896*
%FSLAX45Y45*%
%MOMM*%
%TF.SameCoordinates,B23128D7-451C-415A-91E6-F0051957DF52*%
%TF.FilePolarity,Positive*%
%TF.FileFunction,Legend,Bot*%
%TF.Part,Single*%
G01*
G75*
%TA.AperFunction,NonConductor*%
%ADD60C,0.25400*%
D60*
X13453177Y7104738D02*
Y6952388D01*
X13377002D01*
X13351610Y6977780D01*
Y7079347D01*
X13377002Y7104738D01*
X13453177D01*
X13224651Y6952388D02*
X13275433D01*
X13300826Y6977780D01*
Y7028563D01*
X13275433Y7053955D01*
X13224651D01*
X13199258Y7028563D01*
Y7003171D01*
X13300826D01*
X13148476Y6952388D02*
X13072301D01*
X13046909Y6977780D01*
X13072301Y7003171D01*
X13123083D01*
X13148476Y7028563D01*
X13123083Y7053955D01*
X13046909D01*
X12996124Y6952388D02*
X12945341D01*
X12970734D01*
Y7053955D01*
X12996124D01*
X12818382Y6901604D02*
X12792991D01*
X12767599Y6926996D01*
Y7053955D01*
X12843774D01*
X12869167Y7028563D01*
Y6977780D01*
X12843774Y6952388D01*
X12767599D01*
X12716815D02*
Y7053955D01*
X12640640D01*
X12615248Y7028563D01*
Y6952388D01*
X12488289D02*
X12539073D01*
X12564465Y6977780D01*
Y7028563D01*
X12539073Y7053955D01*
X12488289D01*
X12462897Y7028563D01*
Y7003171D01*
X12564465D01*
X12412114Y7053955D02*
Y6952388D01*
Y7003171D01*
X12386722Y7028563D01*
X12361330Y7053955D01*
X12335938D01*
X12259763D02*
X12234371D01*
Y7028563D01*
X12259763D01*
Y7053955D01*
Y6977780D02*
X12234371D01*
Y6952388D01*
X12259763D01*
Y6977780D01*
X11878886Y7079347D02*
X11904278Y7104738D01*
X11955062D01*
X11980454Y7079347D01*
Y6977780D01*
X11955062Y6952388D01*
X11904278D01*
X11878886Y6977780D01*
X11802711Y6952388D02*
X11751927D01*
X11726536Y6977780D01*
Y7028563D01*
X11751927Y7053955D01*
X11802711D01*
X11828103Y7028563D01*
Y6977780D01*
X11802711Y6952388D01*
X11675752Y7053955D02*
Y6952388D01*
Y7003171D01*
X11650360Y7028563D01*
X11624969Y7053955D01*
X11599577D01*
X11447226Y6952388D02*
X11498010D01*
X11523401Y6977780D01*
Y7028563D01*
X11498010Y7053955D01*
X11447226D01*
X11421834Y7028563D01*
Y7003171D01*
X11523401D01*
X11371051Y7053955D02*
Y6977780D01*
X11345659Y6952388D01*
X11269483D01*
Y6926996D01*
X11294875Y6901604D01*
X11320267D01*
X11269483Y6952388D02*
Y7053955D01*
X11066349Y7104738D02*
Y6952388D01*
Y7028563D01*
X10964782D01*
Y7104738D01*
Y6952388D01*
X10888607Y7053955D02*
X10837823D01*
X10812431Y7028563D01*
Y6952388D01*
X10888607D01*
X10913998Y6977780D01*
X10888607Y7003171D01*
X10812431D01*
X10761648Y7053955D02*
Y6952388D01*
Y7003171D01*
X10736256Y7028563D01*
X10710864Y7053955D01*
X10685472D01*
X10609297D02*
Y6952388D01*
Y7003171D01*
X10583905Y7028563D01*
X10558514Y7053955D01*
X10533122D01*
X10456946Y6952388D02*
X10406163D01*
X10431554D01*
Y7053955D01*
X10456946D01*
X10329987Y6952388D02*
Y7053955D01*
X10253812D01*
X10228420Y7028563D01*
Y6952388D01*
X10126853Y6901604D02*
X10101461D01*
X10076070Y6926996D01*
Y7053955D01*
X10152245D01*
X10177637Y7028563D01*
Y6977780D01*
X10152245Y6952388D01*
X10076070D01*
X9999894Y7079347D02*
Y7053955D01*
X10025286D01*
X9974503D01*
X9999894D01*
Y6977780D01*
X9974503Y6952388D01*
X9872935D02*
X9822152D01*
X9796760Y6977780D01*
Y7028563D01*
X9822152Y7053955D01*
X9872935D01*
X9898327Y7028563D01*
Y6977780D01*
X9872935Y6952388D01*
X9745976D02*
Y7053955D01*
X9669801D01*
X9644409Y7028563D01*
Y6952388D01*
X13453177Y7316955D02*
Y7215387D01*
X13402394Y7164604D01*
X13351610Y7215387D01*
Y7316955D01*
X13224651Y7164604D02*
X13275433D01*
X13300826Y7189996D01*
Y7240779D01*
X13275433Y7266171D01*
X13224651D01*
X13199258Y7240779D01*
Y7215387D01*
X13300826D01*
X13148476Y7266171D02*
Y7164604D01*
Y7215387D01*
X13123083Y7240779D01*
X13097691Y7266171D01*
X13072301D01*
X12996124Y7164604D02*
X12919949D01*
X12894559Y7189996D01*
X12919949Y7215387D01*
X12970734D01*
X12996124Y7240779D01*
X12970734Y7266171D01*
X12894559D01*
X12843774Y7164604D02*
X12792991D01*
X12818382D01*
Y7266171D01*
X12843774D01*
X12691423Y7164604D02*
X12640640D01*
X12615248Y7189996D01*
Y7240779D01*
X12640640Y7266171D01*
X12691423D01*
X12716815Y7240779D01*
Y7189996D01*
X12691423Y7164604D01*
X12564465D02*
Y7266171D01*
X12488289D01*
X12462897Y7240779D01*
Y7164604D01*
X12412114Y7266171D02*
X12386722D01*
Y7240779D01*
X12412114D01*
Y7266171D01*
Y7189996D02*
X12386722D01*
Y7164604D01*
X12412114D01*
Y7189996D01*
X12132804Y7291563D02*
X12107412Y7316955D01*
X12056629D01*
X12031237Y7291563D01*
Y7189996D01*
X12056629Y7164604D01*
X12107412D01*
X12132804Y7189996D01*
Y7291563D01*
X11980454Y7164604D02*
Y7189996D01*
X11955062D01*
Y7164604D01*
X11980454D01*
X11853495D02*
X11802711D01*
X11828103D01*
Y7316955D01*
X11853495Y7291563D01*
%TF.MD5,85e706ac74637254de539253b7e8e38f*%
M02*
